<svg id="Livello_119" data-name="Livello 119" xmlns="http://www.w3.org/2000/svg" viewBox="0 0 29.63 30.25"><defs><style>.cls-1{fill:none;}.cls-1,.cls-2,.cls-4{stroke:#1d1d1b;stroke-linecap:round;}.cls-1,.cls-4{stroke-linejoin:round;}.cls-1,.cls-2,.cls-3,.cls-4{stroke-width:0.75px;}.cls-2{fill:#fcfbfa;}.cls-2,.cls-3{stroke-miterlimit:10;}.cls-3{fill:#d98f0a;stroke:#d98f0d;}.cls-4{fill:#d98f0d;}</style></defs><polyline class="cls-1" points="26.49 12.44 26.7 4.42 5.59 4.42"/><ellipse class="cls-2" cx="4.36" cy="4.52" rx="3.99" ry="4.14"/><ellipse class="cls-2" cx="27.9" cy="10.49" rx="2.63" ry="2.74" transform="translate(-2.12 1.91) rotate(-5.26)"/><path class="cls-3" d="M28.4,10.41a.56.56,0,1,1-1.1.1.56.56,0,1,1,1.1-.1Z" transform="translate(-1.27 -0.7)"/><polyline class="cls-1" points="26.54 12.95 26.54 15.44 3.09 15.48 3.28 22.29"/><ellipse class="cls-2" cx="16.05" cy="16.16" rx="2.63" ry="2.74" transform="matrix(1, -0.09, 0.09, 1, -2.69, 0.84)"/><ellipse class="cls-2" cx="4.34" cy="21.75" rx="2.63" ry="2.74" transform="translate(-3.25 -0.21) rotate(-5.27)"/><polyline class="cls-1" points="3.21 24.33 3.21 26.82 26.66 26.87"/><rect class="cls-4" x="16.93" y="23.62" width="12" height="6.26"/><path class="cls-3" d="M17.63,16.16a.62.62,0,0,1-.5.71A.67.67,0,0,1,17,15.56.62.62,0,0,1,17.63,16.16Z" transform="translate(-1.27 -0.7)"/><path class="cls-3" d="M15.67,16.2a.56.56,0,1,1-.61-.6A.61.61,0,0,1,15.67,16.2Z" transform="translate(-1.27 -0.7)"/><path class="cls-3" d="M4.94,20.5a.61.61,0,0,1-.49.7.66.66,0,0,1-.12-1.3A.61.61,0,0,1,4.94,20.5Z" transform="translate(-1.27 -0.7)"/><path class="cls-3" d="M6,22.34a.61.61,0,0,1-.49.7.66.66,0,0,1-.12-1.3A.61.61,0,0,1,6,22.34Z" transform="translate(-1.27 -0.7)"/><path class="cls-3" d="M3.83,22.32a.59.59,0,0,1-.49.7.66.66,0,0,1-.12-1.3A.6.6,0,0,1,3.83,22.32Z" transform="translate(-1.27 -0.7)"/></svg>