<svg id="Livello_15_copia" data-name="Livello 15 copia" xmlns="http://www.w3.org/2000/svg" viewBox="0 0 27.85 28.81"><defs><style>.cls-1{fill:#404040;}.cls-2,.cls-4{fill:none;stroke-linecap:square;stroke-miterlimit:10;}.cls-2{stroke:#404040;}.cls-3{fill:#f9f9f7;}.cls-4{stroke:#e48c00;}</style></defs><path class="cls-1" d="M29,7.14h-2c-.23.88.69,4.09-1,4H8.16c-1.66.12-.79-3.11-1-4-1.52-.07-4-.16-4,2V21.07c-.07,2.85,4.29,1.8,6,2v6H25.07v-6c1.68-.2,6,.87,6-2V9.13A2,2,0,0,0,29,7.14Z" transform="translate(-3.19 -0.21)"/><path class="cls-2" d="M9.26-9.67" transform="translate(-3.19 -0.21)"/><polyline class="cls-2" points="7.26 9.61 7.26 0.5 20.59 0.5 20.59 9.61"/><rect class="cls-3" x="6.92" y="15.37" width="14.07" height="12.57"/><line class="cls-4" x1="10.11" y1="24.52" x2="17.8" y2="24.52"/><line class="cls-4" x1="10.08" y1="19.95" x2="17.77" y2="19.95"/></svg>