<svg id="SchedaProdotto" xmlns="http://www.w3.org/2000/svg" xmlns:xlink="http://www.w3.org/1999/xlink" viewBox="0 0 31.12 31.12"><defs><style>.cls-1{stroke:#282522;fill:url(#linear-gradient);}.cls-1,.cls-2,.cls-3,.cls-5,.cls-6{stroke-miterlimit:10;}.cls-2,.cls-3,.cls-5,.cls-6,.cls-7{fill:none;}.cls-2{stroke:#fcfcfc;}.cls-2,.cls-3{stroke-linecap:square;}.cls-3{stroke:#fdfcfd;}.cls-4{fill:#fff;opacity:0.9;}.cls-5{stroke:#e58b01;stroke-linecap:round;}.cls-6{stroke:#191714;}</style><linearGradient id="linear-gradient" x1="5.36" y1="17.9" x2="24.75" y2="14.48" gradientUnits="userSpaceOnUse"><stop offset="0" stop-color="#fff"/><stop offset="0.28" stop-color="#1d1d1b" stop-opacity="0.1"/><stop offset="0.65" stop-color="#7c7b7b"/><stop offset="1"/></linearGradient></defs><path class="cls-1" d="M15.36,30.49c5.91-.27,8-1,7.93-1.58a48.69,48.69,0,0,0-3-8.73c-1.3-3.24.14-7.35,1.71-9.56.36-.5,1.51-3.91,1.3-4.26s-2.47-1.18-2.82-1.28a16.48,16.48,0,0,1-2.7-1.22c-.41-.29-.59-2.18-.8-2.21-.44-.07-.79.2-1.73.17h.08c-.94,0-1.29-.24-1.74-.17-.2,0-.38,1.92-.8,2.21a16.38,16.38,0,0,1-2.69,1.22c-.35.1-2.56.84-2.82,1.28s.94,3.76,1.3,4.26c1.57,2.21,3,6.32,1.71,9.56a48.69,48.69,0,0,0-3,8.73c-.11.55,2,1.31,7.93,1.58Z" transform="translate(0.26 -0.51)"/><path class="cls-2" d="M12.42,3.74A24.06,24.06,0,0,1,14.81,8c1.1,3.51-2.26,5.52-1.71,11.49" transform="translate(0.26 -0.51)"/><path class="cls-3" d="M18.36,3.74c-.3.47-.76,2.62-1,3.15-.8,1.8-1.11,2.8-.22,7.31" transform="translate(0.26 -0.51)"/><rect class="cls-4" x="14.78" y="17.27" width="13.32" height="13.1"/><line class="cls-5" x1="15.89" y1="19.94" x2="20.66" y2="19.94"/><line class="cls-5" x1="19.75" y1="23.07" x2="27.73" y2="23.07"/><line class="cls-5" x1="15.89" y1="26.89" x2="27.73" y2="26.89"/><polyline class="cls-6" points="14.5 30.36 14.38 16.89 28.47 16.89"/><line class="cls-5" x1="22.74" y1="19.94" x2="27.51" y2="19.94"/><rect class="cls-7" width="31.12" height="31.12"/></svg>