<svg id="Livello_221" data-name="Livello 221" xmlns="http://www.w3.org/2000/svg" viewBox="0 0 30.95 31.1"><defs><style>.cls-1{fill:#fff;opacity:0.01;}.cls-2{fill:#e58c00;}.cls-3{fill:none;stroke:#020202;stroke-miterlimit:10;stroke-width:0.75px;}</style></defs><rect class="cls-1" width="30.95" height="31.1"/><path d="M16,1.43A7.17,7.17,0,1,0,23.15,8.6,7.17,7.17,0,0,0,16,1.43Z" transform="translate(-0.61 -0.37)"/><path class="cls-2" d="M29.86,22.77l-1.15-.2h-.13a4.82,4.82,0,0,0-.37-.91.24.24,0,0,0,.08-.09l.68-.94a.45.45,0,0,0,0-.57L28,19.13a.43.43,0,0,0-.31-.13.42.42,0,0,0-.26.08l-1,.68-.09.08a4.73,4.73,0,0,0-.9-.37.57.57,0,0,0,0-.13l-.19-1.15a.43.43,0,0,0-.43-.36H23.53a.44.44,0,0,0-.44.36l-.19,1.15a.29.29,0,0,0,0,.13,4.82,4.82,0,0,0-.91.37.24.24,0,0,0-.09-.08L21,19.08A.38.38,0,0,0,20.7,19a.4.4,0,0,0-.31.13l-.94.93a.45.45,0,0,0-.05.57l.68.94a.38.38,0,0,0,.09.09,4.86,4.86,0,0,0-.38.91h-.12l-1.15.2a.44.44,0,0,0-.37.43v1.32a.45.45,0,0,0,.37.44l1.15.19h.12a4.86,4.86,0,0,0,.38.91.38.38,0,0,0-.09.09l-.68,1a.44.44,0,0,0,.05.56l.94.94a.43.43,0,0,0,.31.12.38.38,0,0,0,.25-.08L21.9,28a.38.38,0,0,0,.09-.09,4.86,4.86,0,0,0,.91.38.24.24,0,0,0,0,.12l.19,1.15a.45.45,0,0,0,.44.37h1.32a.44.44,0,0,0,.43-.37l.19-1.15a.49.49,0,0,0,0-.12,4.76,4.76,0,0,0,.9-.38l.09.09,1,.67a.42.42,0,0,0,.26.08A.47.47,0,0,0,28,28.6l.93-.94a.44.44,0,0,0,0-.56l-.68-1a.24.24,0,0,0-.08-.09,4.82,4.82,0,0,0,.37-.91h.13L29.86,25a.44.44,0,0,0,.36-.44V23.2A.43.43,0,0,0,29.86,22.77Zm-5.67,4.64a3.55,3.55,0,1,1,3.55-3.55A3.55,3.55,0,0,1,24.19,27.41Zm0-1.2a2.35,2.35,0,1,1,2.35-2.35A2.35,2.35,0,0,1,24.19,26.21Z" transform="translate(-0.61 -0.37)"/><path class="cls-3" d="M30.13,18.84a12.77,12.77,0,0,0-7.11-6A8.21,8.21,0,0,1,9,12.82,12.68,12.68,0,0,0,1.75,19v8a2.84,2.84,0,0,0,2.84,2.84h15.5a7.21,7.21,0,1,1,9.53-10.69A.31.31,0,0,0,30.13,18.84Z" transform="translate(-0.61 -0.37)"/></svg>